# xmcd
#
# Track frame offsets: 
#        150
#        31392
#        56138
#        74389
#        97395
#        120411
#        137355
#        162826
#        185907
#        207088
#        231400
#        247593
#
# Disc length: 3546 seconds
#
# Revision: 1
# Processed by: cddbd v1.5.2PL0 Copyright (c) Steve Scherf et al.
# Submitted via: ExactAudioCopyFreeDBPlugin 1.0
#
DISCID=a90dd80c
DTITLE=Bettye LaVette - Things Have Changed
DYEAR=2018
DGENRE=Soul
TTITLE0=Things Have Changed
TTITLE1=It Ain't Me Babe
TTITLE2=Political World
TTITLE3=Don't Fall Apart on Me Tonight
TTITLE4=Seeing the Real You at Last
TTITLE5=Mama, You Been on My Mind
TTITLE6=Ain't Talkin'
TTITLE7=The Times They Are a-Changin'
TTITLE8=What Was it You Wanted
TTITLE9=Emotionally Yours
TTITLE10=Do Right to Me Baby (Do Unto Others)
TTITLE11=Going, Going, Gone
EXTD=
EXTT0=
EXTT1=
EXTT2=
EXTT3=
EXTT4=
EXTT5=
EXTT6=
EXTT7=
EXTT8=
EXTT9=
EXTT10=
EXTT11=
PLAYORDER=
